<?xml version="1.0" encoding="utf-8" ?>
<svg baseProfile="full" height="200mm" version="1.1" viewBox="0,0,200,200" width="200mm" xmlns="http://www.w3.org/2000/svg" xmlns:ev="http://www.w3.org/2001/xml-events" xmlns:xlink="http://www.w3.org/1999/xlink"><defs /><rect fill="#1a1a1a" height="200" width="200" x="0" y="0" /><text alignment-baseline="middle" fill="#e1ed5e" style="dominant-baseline: central; font-size:9.0px; font-family:Arial;" text-anchor="middle" x="100.0" y="100.0">2024</text><line stroke="#e1ed5e" stroke-width="0.3" x1="100.0" x2="100.0" y1="15.0" y2="10.0" /><path d="M 100.0 14.0 a86.0,86.0 0 0,1 42.35913384403234,11.155469271406648" fill="none" id="id25" stroke="none" /><text fill="#e1ed5e" style="font-size:6.75px; font-family:Arial;" text-anchor="middle"><textPath startOffset="22.145653131862478" xlink:href="#id25">January</textPath></text><path d="M 102.87502721639298 79.19773525538626 l 3.518258733022346 -25.456367573522233 a46.69834225296959,46.69834225296959 0 0,0 0.7931488710178214,0.11656557045819596 l -3.9547327096478493 25.392220929765152" fill="#feff18" stroke="none" /><path d="M 103.58742460773223 79.30868818359171 l 5.133087040349323 -29.606281983936245 a51.04797023887221,51.04797023887221 0 0,0 0.8621400936403569,0.1571106444588379 l -5.640561867540733 29.51380316554604" fill="#c3ff1e" stroke="none" /><path d="M 103.94208987418118 79.37332000966035 l 2.2659279909678833 -11.85629273877375 a33.070878475394856,33.070878475394856 0 0,0 0.5566986556014624,0.11135532237544929 l -2.4691231321003024 11.81564801973544" fill="#ff3304" stroke="none" /><path d="M 108.73861861582097 80.90454125486305 l 7.9303367244392735 -17.329216940811417 a40.05759691946221,40.05759691946221 0 0,0 0.6228217852090688,0.29151204359337146 l -8.226647223519848 17.190528665647513" fill="#ffa00e" stroke="none" /><path d="M 109.3889696526874 81.21577127319529 l 13.6113973170407 -27.23191254766977 a51.44416525257799,51.44416525257799 0 0,0 0.7865390982986183,0.4016124679042314 l -14.076863637052897 26.994242128092704" fill="#beff1f" stroke="none" /><path d="M 109.71004243097381 81.37971332152246 l 8.689281168836928 -16.66284236591266 a39.79239002741157,39.79239002741157 0 0,0 0.6029706453955112,0.32104790621644225 l -8.974040630018997 16.511223991973644" fill="#ff9c0e" stroke="none" /><line stroke="#e1ed5e" stroke-width="0.3" x1="143.13028292997686" x2="145.6673583964461" y1="26.7553504044142" y2="22.446841604673864" /><path d="M 143.63769802327073 25.89364864446614 a86.0,86.0 0 0,1 29.32050498858742,28.57503671076993" fill="none" id="id26" stroke="none" /><text fill="#e1ed5e" style="font-size:6.75px; font-family:Arial;" text-anchor="middle"><textPath startOffset="20.669276256404974" xlink:href="#id26">February</textPath></text><line stroke="#e1ed5e" stroke-width="0.3" x1="172.87174338648825" x2="177.1583165268699" y1="56.24261187166439" y2="53.66864786411523" /><path d="M 173.72905801456457 55.72781907015455 a86.0,86.0 0 0,1 12.242430191666344,42.057860355516425" fill="none" id="id27" stroke="none" /><text fill="#e1ed5e" style="font-size:6.75px; font-family:Arial;" text-anchor="middle"><textPath startOffset="22.145653131862474" xlink:href="#id27">March</textPath></text><path d="M 118.36410011445183 89.81374322990088 l 18.614082270521536 -10.324917658125159 a42.2858634642997,42.2858634642997 0 0,0 0.34665276385285376,0.6378020411747523 l -18.788580383989732 10.003860783475805" fill="#ffc112" stroke="none" /><path d="M 119.0197475246899 91.09779779509293 l 21.69447156216074 -10.154108109177438 a44.953204542487924,44.953204542487924 0 0,0 0.32112757313912665,0.7017217016087832 l -21.86558360015492 9.78019742535397" fill="#ffe815" stroke="none" /><path d="M 119.16976305983485 91.42560881287824 l 18.567703026017423 -8.305097391889696 a41.34045816473045,41.34045816473045 0 0,0 0.28419816480390375,0.6503010183169117 l -18.707535072838297 7.985134303796935" fill="#ffb310" stroke="none" /><path d="M 119.4528033332814 92.08871423366111 l 21.94956140930608 -8.926695539954988 a44.69534003393813,44.69534003393813 0 0,0 0.28294560604530283,0.713207760984118 l -22.09956569031751 8.548586761757305" fill="#ffe415" stroke="none" /><path d="M 119.58574465831526 92.42381321644754 l 19.04402955651122 -7.366639744808833 a41.41916851585955,41.41916851585955 0 0,0 0.2508213017683957,0.6653333023039475 l -19.167681542094055 7.038638162310728" fill="#ffb410" stroke="none" /><path d="M 119.71291397450082 92.76114493625339 l 32.52895472808536 -11.94508274912449 a55.65281947526432,55.65281947526432 0 0,0 0.32161984324253345,0.8996279424140746 l -32.72921474137184 11.3849198503295" fill="#88ff25" stroke="none" /><path d="M 119.94978838288452 93.4421083053983 l 22.621658291941007 -7.436188403788346 a44.81252447461166,44.81252447461166 0 0,0 0.233953993214889,0.7328575515735358 l -22.745977000933152 7.046761818523423" fill="#ffe615" stroke="none" /><path d="M 120.05942366710727 93.78553927170692 l 22.72325318666466 -7.039721922776064 a44.788735152068924,44.788735152068924 0 0,0 0.22122154439788022,0.736374572892558 l -22.84075105106617 6.648609746292782" fill="#ffe515" stroke="none" /><path d="M 120.16314734710363 94.1308016681162 l 39.78534091634081 -11.580932902975503 a62.436594439368235,62.436594439368235 0 0,0 0.2907211597147234,1.0316668347115223 l -39.97828056813011 10.896258144360967" fill="#38ff2e" stroke="none" /><path d="M 120.43855184770803 95.1765574152323 l 23.257918720615717 -5.488805490035932 a44.896815037201414,44.896815037201414 0 0,0 0.17058467574395755,0.7516275563128598 l -23.34871425791734 5.088743599784046" fill="#ffe715" stroke="none" /><path d="M 120.51834098615036 95.52812308129327 l 23.236226290103954 -5.06422737075576 a44.7816864639081,44.7816864639081 0 0,0 0.15725257490447855,0.7525104969908695 l -23.3197365758328 4.664600422479486" fill="#ffe515" stroke="none" /><path d="M 120.592083275326 95.88100663000786 l 12.509440038091851 -2.5022383549193754 a33.75724448505417,33.75724448505417 0 0,0 0.10878466174482508,0.5692073182714749 l -12.550550992118835 2.287128471614586" fill="#ff3e05" stroke="none" /><path d="M 120.65975698304385 96.23510406497455 l 43.637847130066866 -7.952269400268877 a65.35651350998563,65.35651350998563 0 0,0 0.1916663244087485,1.1054804258460147 l -43.767928271967854 7.201995941502269" fill="#32ff4d" stroke="none" /><path d="M 120.82617615685814 97.30363454192243 l 33.7482151566772 -4.369382114837656 a55.02989165905234,55.02989165905234 0 0,0 0.11325129099337992,0.9378831515711604 l -33.818248533930245 3.789405286343082" fill="#90ff24" stroke="none" /><path d="M 120.9064616781168 98.02013634271609 l 29.275849223965558 -2.772453359495216 a50.406833311578126,50.406833311578126 0 0,0 0.07418536233046291,0.8621463616172487 l -29.31912820899376 2.2694859505023053" fill="#cbff1d" stroke="none" /><path d="M 120.93736805541906 98.37931529534042 l 45.04353006686392 -3.4866541023691724 a66.17827307140061,66.17827307140061 0 0,0 0.07795182536776318,1.1334024327733039 l -45.09674585339675 2.7129082454415347" fill="#34ff58" stroke="none" /><path d="M 120.98066250479742 99.09900007780936 l 23.60133805607542 -1.0135430064354067 a44.623090980289774,44.623090980289774 0 0,0 0.02629641514520042,0.7655914350468442 l -23.61525915821747 0.6082453068244424" fill="#ffe315" stroke="none" /><path d="M 120.99303781780057 99.45929381324524 l 33.94432935794954 -0.8742855154351136 a54.955586738023754,54.955586738023754 0 0,0 0.016195067026842955,0.9432814630690542 l -33.95433585657505 0.291457136396993" fill="#91ff24" stroke="none" /><line stroke="#e1ed5e" stroke-width="0.3" x1="184.99686870605535" x2="189.99668451229388" y1="99.2704041080226" y2="99.22748670261217" /><path d="M 185.99683186730306 99.26182062694052 a86.0,86.0 0 0,1 -10.086455211305974,41.156179273409016" fill="none" id="id28" stroke="none" /><text fill="#e1ed5e" style="font-size:6.75px; font-family:Arial;" text-anchor="middle"><textPath startOffset="21.40746469413373" xlink:href="#id28">April</textPath></text><path d="M 120.99922638620191 100.18025310272382 l 13.845169357665682 0.1188441273291809 a34.84567941521995,34.84567941521995 0 0,0 -0.010268803359617265,0.5981063147794804 l -13.841089122707396 -0.3564973580777323" fill="#ff4f07" stroke="none" /><path d="M 120.98066250479742 100.90099992219065 l 62.28031437471936 2.674584674950082 a83.33771700822346,83.33771700822346 0 0,0 -0.07364836028526558,1.4287585142165822 l -62.22522442497752 -3.743314982543395" fill="#4cd9ff" stroke="none" /><path d="M 120.592083275326 104.11899336999214 l 8.838426106062549 1.7679327557721662 a30.013509985641562,30.013509985641562 0 0,0 -0.10539356821604783,0.5043463768149526 l -8.806774827022137 -1.919395583872528" fill="#ff0000" stroke="none" /><path d="M 120.43855184770803 104.8234425847677 l 29.405262820185094 6.93956195918414 a51.21302701997129,51.21302701997129 0 0,0 -0.20927221538911953,0.8539020531062363 l -29.281803078279676 -7.443319836898476" fill="#c1ff1e" stroke="none" /><path d="M 120.35273937422433 105.17358676015961 l 25.66370486955414 6.523613420703431 a47.4798655527999,47.4798655527999 0 0,0 -0.207578624177341,0.7882098467363912 l -25.547936764572068 -6.963203771812626" fill="#f3ff19" stroke="none" /><path d="M 120.26092885502905 105.52220625578681 l 14.255227900667602 3.8853257545097057 a35.77522516642736,35.77522516642736 0 0,0 -0.16657883157831962,0.5911295073017128 l -14.186430577014702 -4.129463185714427" fill="#ff5e08" stroke="none" /><path d="M 119.83427380445688 106.89939002012753 l 59.50282141337066 20.698170060382587 a84.0,84.0 0 0,0 -0.48543931982422706,1.3578601744763141 l -59.13874192350249 -21.716565191239823" fill="#4dd2ff" stroke="none" /><line stroke="#e1ed5e" stroke-width="0.3" x1="174.33088141563837" x2="178.70328620479359" y1="141.23008692659167" y2="143.65538615756765" /><path d="M 175.20536237346943 141.71514677278685 a86.0,86.0 0 0,1 -30.301960400862466,31.631185727798858" fill="none" id="id29" stroke="none" /><text fill="#e1ed5e" style="font-size:6.75px; font-family:Arial;" text-anchor="middle"><textPath startOffset="22.145653131862474" xlink:href="#id29">May</textPath></text><path d="M 118.36410011445183 110.18625677009912 l 27.50813918630277 15.25830110231184 a52.45653308967498,52.45653308967498 0 0,0 -0.44354905063706224,0.7837086724265178 l -27.24215677064433 -15.728266544837481" fill="#b0ff20" stroke="none" /><path d="M 117.62189284568427 111.42229804090321 l 12.381444160697955 8.025502516599895 a35.75496018796502,35.75496018796502 0 0,0 -0.33826841793862045,0.5121814987488412 l -12.241851303838606 -8.236863893687797" fill="#ff5e08" stroke="none" /><path d="M 116.57777611688842 112.89097897827486 l 13.954489188141421 10.851095195672055 a38.67693512596267,38.67693512596267 0 0,0 -0.41206327369411383,0.5206284852673951 l -13.766159483805746 -11.089043624854133" fill="#ff8b0c" stroke="none" /><path d="M 116.35404254752997 113.17365903436017 l 15.321908417294923 12.342244839984353 a40.67465082887352,40.67465082887352 0 0,0 -0.44268194396653504,0.5399999925619258 l -15.10777965408976 -12.603447114244773" fill="#ffa90f" stroke="none" /><path d="M 115.89218393027572 113.72728997021213 l 14.007715330267823 12.099530876461232 a39.509855110298915,39.509855110298915 0 0,0 -0.447757541945261,0.5094658890154135 l -13.797946724363976 -12.338209043287938" fill="#ff980e" stroke="none" /><line stroke="#e1ed5e" stroke-width="0.3" x1="143.1302829299769" x2="145.66735839644613" y1="173.24464959558577" y2="177.55315839532614" /><path d="M 143.63769802327073 174.10635135553383 a86.0,86.0 0 0,1 -40.68552437913181,11.842963189579606" fill="none" id="id30" stroke="none" /><text fill="#e1ed5e" style="font-size:6.75px; font-family:Arial;" text-anchor="middle"><textPath startOffset="21.407464694133747" xlink:href="#id30">June</textPath></text><line stroke="#e1ed5e" stroke-width="0.3" x1="101.45913802915013" x2="101.54496967792366" y1="184.9874750549273" y2="189.98673829345242" /><path d="M 101.47630435890484 185.9873277026323 a86.0,86.0 0 0,1 -42.54439059252881,-10.42667462771756" fill="none" id="id31" stroke="none" /><text fill="#e1ed5e" style="font-size:6.75px; font-family:Arial;" text-anchor="middle"><textPath startOffset="22.145653131862474" xlink:href="#id31">July</textPath></text><line stroke="#e1ed5e" stroke-width="0.3" x1="58.13341422392154" x2="55.67067388415222" y1="173.97424548756322" y2="178.32567169271397" /><path d="M 57.64086615596768 174.84453072859336 a86.0,86.0 0 0,1 -31.369924170532247,-30.572349798747897" fill="none" id="id32" stroke="none" /><text fill="#e1ed5e" style="font-size:6.75px; font-family:Arial;" text-anchor="middle"><textPath startOffset="22.145653131862474" xlink:href="#id32">August</textPath></text><line stroke="#e1ed5e" stroke-width="0.3" x1="26.387840678322732" x2="22.057713659400548" y1="142.50000000000003" y2="145.00000000000006" /><path d="M 25.521815274538298 143.00000000000003 a86.0,86.0 0 0,1 -11.493303480769221,-40.785679425670985" fill="none" id="id33" stroke="none" /><text fill="#e1ed5e" style="font-size:6.75px; font-family:Arial;" text-anchor="middle"><textPath startOffset="21.40746469413373" xlink:href="#id33">September</textPath></text><line stroke="#e1ed5e" stroke-width="0.3" x1="15.003131293944662" x2="10.003315487706104" y1="100.72959589197737" y2="100.7725132973878" /><path d="M 14.003168132696942 100.73817937305945 a86.0,86.0 0 0,1 10.791469493833604,-42.45332614584628" fill="none" id="id34" stroke="none" /><text fill="#e1ed5e" style="font-size:6.75px; font-family:Arial;" text-anchor="middle"><textPath startOffset="22.145653131862435" xlink:href="#id34">October</textPath></text><line stroke="#e1ed5e" stroke-width="0.3" x1="26.387840678322718" x2="22.05771365940052" y1="57.49999999999999" y2="54.99999999999999" /><path d="M 25.521815274538284 56.99999999999999 a86.0,86.0 0 0,1 29.574782752854787,-30.34633250058573" fill="none" id="id35" stroke="none" /><text fill="#e1ed5e" style="font-size:6.75px; font-family:Arial;" text-anchor="middle"><textPath startOffset="21.40746469413373" xlink:href="#id35">November</textPath></text><line stroke="#e1ed5e" stroke-width="0.3" x1="56.869717070023135" x2="54.33264160355391" y1="26.7553504044142" y2="22.446841604673864" /><path d="M 56.362301976729285 25.89364864446614 a86.0,86.0 0 0,1 42.16139366436587,-11.88097634709845" fill="none" id="id36" stroke="none" /><text fill="#e1ed5e" style="font-size:6.75px; font-family:Arial;" text-anchor="middle"><textPath startOffset="22.145653131862474" xlink:href="#id36">December</textPath></text></svg>