<?xml version="1.0" encoding="utf-8" ?>
<svg baseProfile="full" height="200mm" version="1.1" viewBox="0,0,200,200" width="200mm" xmlns="http://www.w3.org/2000/svg" xmlns:ev="http://www.w3.org/2001/xml-events" xmlns:xlink="http://www.w3.org/1999/xlink"><defs /><rect fill="#1a1a1a" height="200" width="200" x="0" y="0" /><text alignment-baseline="middle" fill="#e1ed5e" style="dominant-baseline: central; font-size:9.0px; font-family:Arial;" text-anchor="middle" x="100.0" y="100.0">2023</text><line stroke="#e1ed5e" stroke-width="0.3" x1="100.0" x2="100.0" y1="15.0" y2="10.0" /><path d="M 100.0 14.0 a86.0,86.0 0 0,1 42.46469731375804,11.215312516191453" fill="none" id="id13" stroke="none" /><text fill="#e1ed5e" style="font-size:6.75px; font-family:Arial;" text-anchor="middle"><textPath startOffset="22.20632615414155" xlink:href="#id13">January</textPath></text><line stroke="#e1ed5e" stroke-width="0.3" x1="143.23703022742887" x2="145.7803849466894" y1="26.81831364943548" y2="22.513508569990506" /><path d="M 143.74570117128098 25.957352633546492 a86.0,86.0 0 0,1 28.547481713284135,27.462654790039103" fill="none" id="id14" stroke="none" /><text fill="#e1ed5e" style="font-size:6.75px; font-family:Arial;" text-anchor="middle"><textPath startOffset="19.985693538727396" xlink:href="#id14">February</textPath></text><path d="M 117.45458315368197 88.32363383020206 l 13.32062368629838 -8.910924907335513 a37.026340758143945,37.026340758143945 0 0,0 0.34981669460951237,0.5327948254342045 l -13.472037016265816 8.680312017923635" fill="#ff4706" stroke="none" /><line stroke="#e1ed5e" stroke-width="0.3" x1="172.23445277983987" x2="176.4835382374775" y1="55.19839476539836" y2="52.563006222186495" /><path d="M 173.08426987136738 54.67131705675599 a86.0,86.0 0 0,1 12.851231095245387,41.99856678651699" fill="none" id="id15" stroke="none" /><text fill="#e1ed5e" style="font-size:6.75px; font-family:Arial;" text-anchor="middle"><textPath startOffset="22.20632615414155" xlink:href="#id15">March</textPath></text><path d="M 117.84615892207809 88.93136811851018 l 10.959023584214716 -6.7970591522734765 a33.8957439118059,33.8957439118059 0 0,0 0.3032607041125827,0.4984808605278823 l -11.074400086613522 6.607410518538513" fill="#ff1101" stroke="none" /><path d="M 118.03404312379186 89.2402003453031 l 16.868874295931995 -10.064615382062525 a40.64320245786834,40.64320245786834 0 0,0 0.3532868289156038,0.6038817102249374 l -17.039620799317927 9.772754259483694" fill="#ff840c" stroke="none" /><path d="M 118.3937258080291 89.86733742301442 l 17.03827617206039 -9.38597786804132 a40.45249175439389,40.45249175439389 0 0,0 0.33073167622196503,0.6127955666028384 l -17.19731594750082 9.091301318106021" fill="#ff800b" stroke="none" /><path d="M 118.73160827565052 90.50648371742162 l 20.97731932067102 -10.631683067732768 a44.51766592870375,44.51766592870375 0 0,0 0.34053891800626074,0.6865056787341762 l -21.157218251630688 10.269017800499642" fill="#ffc111" stroke="none" /><path d="M 120.87857604477298 97.74499172005257 l 23.23688445808942 -2.509719376494151 a44.37202367505535,44.37202367505535 0 0,0 0.07548077261757981,0.7600810794323588 l -23.276642356389228 2.109362766357357" fill="#ffbf11" stroke="none" /><path d="M 120.98425023603335 99.18683210126433 l 23.98498000592653 -0.9294502101935997 a45.00298197262008,45.00298197262008 0 0,0 0.02333362943452307,0.7743295638858207 l -23.9974253298167 0.5164504988827798" fill="#ffc912" stroke="none" /><line stroke="#e1ed5e" stroke-width="0.3" x1="184.98032266829074" x2="189.97916517819016" y1="98.17113171792111" y2="98.06355123074" /><path d="M 185.9800911702706 98.14961562048488 a86.0,86.0 0 0,1 -9.607161424134198,41.387399972396054" fill="none" id="id16" stroke="none" /><text fill="#e1ed5e" style="font-size:6.75px; font-family:Arial;" text-anchor="middle"><textPath startOffset="21.466115282336823" xlink:href="#id16">April</textPath></text><path d="M 120.99513854157772 99.54816195383933 l 19.11550780827738 -0.4113863636744539 a40.11993403515113,40.11993403515113 0 0,0 0.008916164122846282,0.6905667372720536 l -19.11975697951794 0.08228336834193749" fill="#ff7b0b" stroke="none" /><path d="M 120.99824983174949 100.27111621757518 l 25.588681847785278 0.3303849935539289 a46.59081462070212,46.59081462070212 0 0,0 -0.01725621121782187,0.8018283283122173 l -25.57920357388245 -0.7708031376562611" fill="#ffe115" stroke="none" /><path d="M 120.9764740272857 100.99374915477107 l 32.93277042141315 1.5601722543063445 a53.96970586906429,53.96970586906429 0 0,0 -0.05194879510192934,0.9275806337715907 l -32.901035275423695 -2.1268246044133585" fill="#b3ff20" stroke="none" /><path d="M 120.95626037817324 101.35467743843564 l 18.9044727199479 1.2220435429361591 a39.94392987846203,39.94392987846203 0 0,0 -0.05025981370758814,0.6857552264321362 l -18.880636347575976 -1.5472719058650657" fill="#ff780b" stroke="none" /><path d="M 120.8583938346157 102.4346265915055 l 46.657851188631845 5.445982375586058 a67.97460805132607,67.97460805132607 0 0,0 -0.14565498913555808,1.16101357463256 l -46.55719469024944 -6.248313704506013" fill="#35ff64" stroke="none" /><path d="M 120.49622156327973 104.57218783832717 l 27.4281542661185 6.118526430646239 a49.10231328785072,49.10231328785072 0 0,0 -0.19112358569760066,0.8233554050162989 l -27.31877011449035 -6.589750493011103" fill="#f8ff18" stroke="none" /><path d="M 120.41448212921028 104.9243191809786 l 31.929622514251893 7.701966260675316 a53.84541182849139,53.84541182849139 0 0,0 -0.2250960921744973,0.8991469954492424 l -31.792315107782333 -8.250441095521953" fill="#b5ff20" stroke="none" /><path d="M 120.32669344350535 105.2749913415812 l 22.748024815836338 5.903352371359313 a44.50153616771337,44.50153616771337 0 0,0 -0.19879879588757934,0.7398042744650002 l -22.643037943606984 -6.294047578999862" fill="#ffc111" stroke="none" /><path d="M 119.26925614724726 108.34839909993367 l 13.716057288745635 5.942477459897214 a35.94801879546379,35.94801879546379 0 0,0 -0.25088107812966604,0.5656706005120542 l -13.611735125884696 -6.177696396901956" fill="#ff3505" stroke="none" /><path d="M 118.81262510543309 109.33194174019688 l 21.296694001227976 10.564156068833999 a44.772895676139704,44.772895676139704 0 0,0 -0.34842124613882636,0.6874681733640903 l -21.111694085302883 -10.929178453900784" fill="#ffc512" stroke="none" /><path d="M 118.64920377521936 109.65438752849418 l 22.66249422754709 11.732002302732548 a46.51917950571544,46.51917950571544 0 0,0 -0.3742523189012658,0.7079443466923561 l -22.45718940042093 -12.120361664511039" fill="#ffe015" stroke="none" /><line stroke="#e1ed5e" stroke-width="0.3" x1="174.80103733775053" x2="179.2010983576182" y1="140.37084112569926" y2="142.7455964860345" /><path d="M 175.68104954172406 140.8457921977663 a86.0,86.0 0 0,1 -30.038265399797805,32.042727171017184" fill="none" id="id17" stroke="none" /><text fill="#e1ed5e" style="font-size:6.75px; font-family:Arial;" text-anchor="middle"><textPath startOffset="22.206326154141568" xlink:href="#id17">May</textPath></text><path d="M 118.48025628344425 109.97397251340804 l 21.030653555290833 11.350446513417305 a44.89813852618262,44.89813852618262 0 0,0 -0.3729187871752515,0.6769559203070828 l -20.83215835866407 -11.710772952122193" fill="#ffc712" stroke="none" /><path d="M 118.30583269289576 110.29060199501025 l 24.45023386198818 13.74466977709722 a49.048705552794466,49.048705552794466 0 0,0 -0.42006246595141816,0.732414316556924 l -24.210019399884384 -14.16350393951246" fill="#f9ff18" stroke="none" /><path d="M 118.12598468904814 110.60418214915192 l 20.658201047360922 12.085595929713882 a44.93371888130845,44.93371888130845 0 0,0 -0.3963135268008564,0.6642442668297058 l -20.447106644861837 -12.439402290429694" fill="#ffc712" stroke="none" /><path d="M 117.75023020441432 111.22182372390056 l 24.251082598440558 15.331709555280746 a49.69104956399946,49.69104956399946 0 0,0 -0.46329837325338274,0.719049363796759 l -23.983579361810126 -15.746880518998958" fill="#efff19" stroke="none" /><path d="M 117.55443506779139 111.5257021239791 l 31.355759995032958 20.5872275683093 a58.51023358785524,58.51023358785524 0 0,0 -0.5600178691834394,0.8371507302069537 l -30.996739020438795 -21.123915212722057" fill="#77ff27" stroke="none" /><path d="M 117.35343817320211 111.8261652097733 l 15.875106827448136 10.818699683047248 a40.21101974427326,40.21101974427326 0 0,0 -0.3947172920080914,0.5686196985443915 l -15.686528628277907 -11.09036064377866" fill="#ff7c0b" stroke="none" /><path d="M 116.71984013943494 112.70617746262583 l 18.803682321905963 14.289785221657741 a44.617290923056075,44.617290923056075 0 0,0 -0.46995431363705514,0.6074793008548932 l -18.55492119105084 -14.611342516625887" fill="#ffc312" stroke="none" /><path d="M 116.498646956653 112.99209946851258 l 30.0532101399675 23.665837356991243 a59.252676998147564,59.252676998147564 0 0,0 -0.6379032824800253,0.7958824270074124 l -29.641388945432624 -24.179647617576904" fill="#6dff28" stroke="none" /><path d="M 115.56566222782051 114.09645910891815 l 21.029080969826737 19.044199703850193 a49.37082636786699,49.37082636786699 0 0,0 -0.5758838694775497,0.6250082018723149 l -20.698150692353465 -19.403359160523845" fill="#f4ff19" stroke="none" /><path d="M 115.32070863581623 114.36230785411682 l 21.971473040683286 20.597027678015728 a51.11616138797271,51.11616138797271 0 0,0 -0.6072927326168919,0.6367440022244617 l -21.61367375668743 -20.972178796822696" fill="#dbff1b" stroke="none" /><path d="M 115.07121518719521 114.62390073753431 l 24.662236102192917 23.930259653549808 a55.36398138526183,55.36398138526183 0 0,0 -0.669533433668479,0.6782338334493397 l -24.246662043468906 -24.351233980979814" fill="#a0ff22" stroke="none" /><path d="M 114.81725581225074 114.88116024355365 l 25.138053906931237 25.246470273587757 a56.627321194596306,56.627321194596306 0 0,0 -0.696651006069293,0.6818196350392445 l -24.69975294848615 -25.675440011549576" fill="#8fff24" stroke="none" /><path d="M 114.29624159901734 115.38237550388516 l 16.35577109517542 17.59837443282104 a45.02527899516559,45.02527899516559 0 0,0 -0.5722508213899926,0.522737557403741 l -16.050420724318563 -17.877304756811363" fill="#ffc912" stroke="none" /><path d="M 114.0293411484842 115.62618273729858 l 15.945832946362575 17.76081263411429 a44.86872543261194,44.86872543261194 0 0,0 -0.5791433878021018,0.5110267038882821 l -15.637747205653886 -18.032662479774864" fill="#ffc612" stroke="none" /><path d="M 112.92097659922987 116.55440617244103 l 14.601409940434564 18.70738399593408 a44.73114805945873,44.73114805945873 0 0,0 -0.6110514914172722,0.4685282270464685 l -14.277229720523799 -18.955951564807922" fill="#ffc412" stroke="none" /><path d="M 112.63410532772338 116.77436683061366 l 15.582424761044265 20.68886575439804 a46.90060091266435,46.90060091266435 0 0,0 -0.6490485486486219,0.48015059973092117 l -15.223991241977078 -20.954026302868733" fill="#ffe515" stroke="none" /><path d="M 112.04921762599082 117.19931262002967 l 19.778616797084563 28.232423385817473 a55.47119685537433,55.47119685537433 0 0,0 -0.7867482897667624,0.541132647655498 l -19.289711622694917 -28.568696822838067" fill="#9fff22" stroke="none" /><path d="M 111.7513745106137 117.40417183066458 l 18.779474831265837 27.81301936703593 a54.55939095468305,54.55939095468305 0 0,0 -0.7828630912373308,0.5188389686525061 l -18.29793704128854 -28.132156356779753" fill="#abff21" stroke="none" /><line stroke="#e1ed5e" stroke-width="0.3" x1="143.8653032363475" x2="146.44561519142675" y1="172.8068346515853" y2="177.08958963109032" /><path d="M 144.38136562736335 173.6633856474863 a86.0,86.0 0 0,1 -40.68145358897372,12.25698825130547" fill="none" id="id18" stroke="none" /><text fill="#e1ed5e" style="font-size:6.75px; font-family:Arial;" text-anchor="middle"><textPath startOffset="21.466115282336833" xlink:href="#id18">June</textPath></text><path d="M 110.5260780823613 118.17145234162733 l 17.93019169665858 30.953373264259827 a56.771540234039676,56.771540234039676 0 0,0 -0.8498192226834824,0.4825495335589981 l -17.394723707053895 -31.257425963613453" fill="#8dff24" stroke="none" /><path d="M 109.89434966115114 118.52300852407294 l 13.697100548630567 25.64206025723275 a50.071047756743326,50.071047756743326 0 0,0 -0.7637243865007234,0.3995445031735388 l -13.253685259603348 -25.874034179351007" fill="#eaff1a" stroke="none" /><path d="M 109.57404056367764 118.69057910512821 l 6.831988282777958 13.33750537145416 a35.98549676952966,35.98549676952966 0 0,0 -0.5537415552937217,0.2776575113103917 l -6.601392819801476 -13.453130723673855" fill="#ff3605" stroke="none" /><path d="M 106.91757812671514 119.82793768551818 l 7.988360337085449 22.89713366033341 a45.25062124429585,45.25062124429585 0 0,0 -0.7376503454912471,0.25025104725318376 l -7.593040258656974 -23.031247694484716" fill="#ffcc13" stroke="none" /><path d="M 105.88484417918355 120.15858648285463 l 6.776358322444856 23.21247617141974 a45.18135815298423,45.18135815298423 0 0,0 -0.7484374421012415,0.21151589707735335 l -6.375789712239008 -23.32568086183561" fill="#ffcb12" stroke="none" /><path d="M 105.53697534728816 120.25689768951611 l 6.442459568564508 23.569591006608395 a45.43421587674513,45.43421587674513 0 0,0 -0.7561758415375249,0.19971291252533455 l -6.035793284215486 -23.676995268437313" fill="#ffcf13" stroke="none" /><path d="M 104.83641907484287 120.43548508189849 l 5.615101556802048 23.72567850752292 a45.3810825464239,45.3810825464239 0 0,0 -0.761710342683509,0.17336279407880287 l -5.2058710647256765 -23.81881803517941" fill="#ffce13" stroke="none" /><path d="M 104.48393922423573 120.51570834832081 l 6.125835281833814 28.028000324508678 a49.68962634979442,49.68962634979442 0 0,0 -0.8371720990924302,0.1754375530366726 l -5.642471721312006 -28.129293858271893" fill="#efff19" stroke="none" /><path d="M 102.34483914955558 120.86867818915974 l 3.114145139909263 27.715373470892143 a48.889779966565754,48.889779966565754 0 0,0 -0.8371033921476893,0.08676918930537697 l -2.6366091511559713 -27.764872028653276" fill="#fbff18" stroke="none" /><path d="M 101.62511606390274 120.93702456842531 l 2.350224891855176 30.2788935480252 a51.36996792120363,51.36996792120363 0 0,0 -0.8821868290465613,0.060840768778364744 l -1.8286753020296842 -30.31486266131985" fill="#d7ff1c" stroke="none" /><path d="M 101.26447882468166 120.96189622390904 l 1.1780111654779537 19.52847870550275 a40.5639768671215,40.5639768671215 0 0,0 -0.6973371257919267,0.03604436413495521 l -0.8416859712725474 -19.54586287639991" fill="#ff820c" stroke="none" /><line stroke="#e1ed5e" stroke-width="0.3" x1="102.19456741930631" x2="102.32365962044197" y1="184.97166512339345" y2="189.96999836594603" /><path d="M 102.22038585953345 185.97133177190398 a86.0,86.0 0 0,1 -42.740103519485714,-10.115201625700543" fill="none" id="id19" stroke="none" /><text fill="#e1ed5e" style="font-size:6.75px; font-family:Arial;" text-anchor="middle"><textPath startOffset="22.20632615414155" xlink:href="#id19">July</textPath></text><path d="M 99.81925306533755 120.99922214144158 l -0.1024883219633003 11.907117782274968 a32.907558848777846,32.907558848777846 0 0,0 -0.566386584532264,-0.0097508586963767 l 0.30743459638823223 -11.903589446299431" fill="#ff0000" stroke="none" /><path d="M 99.45781275523022 120.99299961872073 l -0.6280607091234811 24.31794247162931 a45.3260515971626,45.3260515971626 0 0,0 -0.7797799990952329,-0.026857199836798476 l 1.046561059893357 -24.303528473366416" fill="#ffce13" stroke="none" /><path d="M 92.7421414339146 119.70592522655815 l -11.254222472690142 30.55651532894211 a53.56314101115981,53.56314101115981 0 0,0 -0.8624425259756809,-0.3261019670505686 l 11.778535219426105 -30.358265111784906" fill="#b8ff1f" stroke="none" /><path d="M 92.06813273071674 119.44442032107085 l -11.562901434212458 28.3456477503886 a51.61333755026431,51.61333755026431 0 0,0 -0.8197391020764039,-0.3426510111507477 l 12.049111995786324 -28.14241169621788" fill="#d4ff1c" stroke="none" /><path d="M 91.40352486487194 119.15986991738527 l -10.884932709617479 24.260396441274217 a47.59038539737044,47.59038539737044 0 0,0 -0.7445221284190021,-0.3417735926527582 l 11.3009228338039 -24.069435778287385" fill="#fff016" stroke="none" /><path d="M 90.42595943632237 118.69057910512821 l -13.946443853681403 27.22644742820398 a51.59056612298378,51.59056612298378 0 0,0 -0.7869013177619089,-0.4116695781999715 l 14.413036073969806 -26.982348431059293" fill="#d4ff1c" stroke="none" /><line stroke="#e1ed5e" stroke-width="0.3" x1="58.666819895761336" x2="56.23545636021788" y1="174.27360380694188" y2="178.64263932499728" /><path d="M 58.180547188652646 175.14741091055294 a86.0,86.0 0 0,1 -31.652253787137756,-30.449443065178592" fill="none" id="id20" stroke="none" /><text fill="#e1ed5e" style="font-size:6.75px; font-family:Arial;" text-anchor="middle"><textPath startOffset="22.20632615414155" xlink:href="#id20">August</textPath></text><path d="M 89.7882731507175 118.34994917583269 l -11.358717900984313 20.41103324266142 a44.358740342475045,44.358740342475045 0 0,0 -0.6640107011656676,-0.37704260573665177 l 11.708377369071188 -20.21248747113014" fill="#ffbf11" stroke="none" /><path d="M 89.4739219176387 118.17145234162733 l -16.88795159737267 29.15412608553682 a54.69222428048615,54.69222428048615 0 0,0 -0.8105703524289961,-0.47889925167267866 l 17.38728982083005 -28.85910826157039" fill="#a9ff21" stroke="none" /><path d="M 88.8546689885994 117.79835938074946 l -25.18916314337327 40.225434100386266 a68.46134730944743,68.46134730944743 0 0,0 -0.9934008753130726,-0.6340354397604666 l 25.877845820733267 -39.785884231802" fill="#36ff6b" stroke="none" /><path d="M 88.24862548938628 117.40417183066458 l -18.204462921674075 26.96140783255756 a53.531830298649076,53.531830298649076 0 0,0 -0.7592422432375426,-0.522213738039172 l 18.665862049534507 -26.644053305153285" fill="#b9ff1f" stroke="none" /><path d="M 87.65650970185807 116.9893568818739 l -18.39059034344772 25.3124760555132 a52.28794108345005,52.28794108345005 0 0,0 -0.7236029307009144,-0.535304149229666 l 18.823578244567198 -24.992161957543768" fill="#caff1d" stroke="none" /><path d="M 86.24171649860922 115.8653595955263 l -34.13525057848564 39.36305173943583 a73.10244883206073,73.10244883206073 0 0,0 -0.9435703703421403,-0.8325911447811571 l 34.80776330173437 -38.769637452882385" fill="#3dffa9" stroke="none" /><path d="M 85.44109423537348 115.13401014063109 l -25.03325338776981 26.022114350378494 a57.10836759589753,57.10836759589753 0 0,0 -0.702569023244799,-0.687611660422988 l 25.477472363390405 -25.587352587032935" fill="#89ff24" stroke="none" /><path d="M 84.67929136418377 114.36230785411682 l -37.02014270781585 34.70431420711255 a71.74327926625402,71.74327926625402 0 0,0 -0.8368463789730697,-0.9082314652081132 l 37.61203549478465 -34.061931487103095" fill="#3bff97" stroke="none" /><path d="M 82.6465618267979 111.8261652097733 l -40.58295922667634 27.65681219628929 a70.11085257308093,70.11085257308093 0 0,0 -0.6710506497235891,-1.003129671988984 l 41.05301298181065 -26.954145610094486" fill="#38ff81" stroke="none" /><line stroke="#e1ed5e" stroke-width="0.3" x1="26.63291911575756" x2="22.317208475507996" y1="142.92168965132927" y2="145.44649492493687" /><path d="M 25.769776987707644 143.4266507060508 a86.0,86.0 0 0,1 -11.730757126820373,-40.83630448921669" fill="none" id="id21" stroke="none" /><text fill="#e1ed5e" style="font-size:6.75px; font-family:Arial;" text-anchor="middle"><textPath startOffset="21.46611528233685" xlink:href="#id21">September</textPath></text><path d="M 81.69416730710424 110.29060199501025 l -49.6870238569427 27.93150114535945 a77.99972891158001,77.99972891158001 0 0,0 -0.6478567989793399,-1.1760482728754262 l 50.160457065373556 -27.072082354086202" fill="#44ffe7" stroke="none" /><path d="M 81.35079622478065 109.6543875284942 l -12.243358580211666 6.33818632732955 a34.78667600415669,34.78667600415669 0 0,0 -0.27070880315778295,-0.5341341507811236 l 12.350646053155716 -6.126497964845741" fill="#ff2103" stroke="none" /><path d="M 81.18737489456691 109.33194174019688 l -27.399131173977118 13.591250259578297 a51.58487326616365,51.58487326616365 0 0,0 -0.3877382977622085,-0.7988557376803596 l 27.629022728354045 -13.117605565932653" fill="#d4ff1c" stroke="none" /><path d="M 80.87730276802145 108.67885076344099 l -29.929919855491104 13.583717016298792 a53.868183255771925,53.868183255771925 0 0,0 -0.37594583359345546,-0.847658607951721 l 30.15930677381584 -13.066510071854376" fill="#b4ff20" stroke="none" /><path d="M 80.45479744820244 107.68017299344265 l -58.6356076553927 23.04051898032796 a84.0,84.0 0 0,0 -0.5172228816259636,-1.3503057326673686 l 59.02352481661217 -22.027789680827432" fill="#4dd2ff" stroke="none" /><path d="M 80.32549172779594 107.34259656027581 l -30.684250386033334 11.451471529656196 a53.7514796909592,53.7514796909592 0 0,0 -0.31604779413827905,-0.8696277923421115 l 30.876822441176834 -10.921595940307967" fill="#b6ff1f" stroke="none" /><path d="M 80.20201598880116 107.00284435728193 l -17.019664834458958 6.020111127547247 a39.052997786111234,39.052997786111234 0 0,0 -0.2187138389904991,-0.6356847937850513 l 17.120769504392687 -5.7262536306728995" fill="#ff6909" stroke="none" /><path d="M 80.0844068197444 106.66101706037122 l -30.008361937601514 10.036668705320118 a52.64232142050332,52.64232142050332 0 0,0 -0.28002643938873845,-0.8618327624805279 l 30.1766806280065 -9.518637042861787" fill="#c5ff1e" stroke="none" /><path d="M 79.97269907076064 106.31721596034903 l -23.504231477316992 7.413944931913714 a45.645800388560076,45.645800388560076 0 0,0 -0.2299096966018537,-0.7513581909808797 l 23.628367946424977 -7.008259768380786" fill="#ffd213" stroke="none" /><path d="M 79.76711848015287 105.62410040840567 l -46.81773417965077 13.01384766485756 a69.59280260244884,69.59280260244884 0 0,0 -0.31088736594775523,-1.1569275416304687 l 47.034809621940305 -12.20602919005155" fill="#37ff7a" stroke="none" /><path d="M 79.58551787078972 104.9243191809786 l -24.341408332847973 5.871560355379562 a46.03955631861926,46.03955631861926 0 0,0 -0.17920225134725104,-0.7719986086453016 l 24.43887115012578 -5.451693089385686" fill="#ffd814" stroke="none" /><path d="M 79.50377843672027 104.57218783832718 l -15.597427361420523 3.4793909438821955 a36.98079790358288,36.98079790358288 0 0,0 -0.1332470296243707,-0.6224857621847738 l 15.655008429769335 -3.210391362281258" fill="#ff4706" stroke="none" /><path d="M 79.35854240842038 103.8639653848113 l -34.510301211711585 6.46013532280112 a56.10974562869923,56.10974562869923 0 0,0 -0.16954109426591052,-0.950876493827766 l 34.61638874831668 -5.865140078240141" fill="#96ff23" stroke="none" /><line stroke="#e1ed5e" stroke-width="0.3" x1="15.007084014347285" x2="10.007500721073583" y1="101.09737516637583" y2="101.16192664675087" /><path d="M 14.007167355692545 101.11028546245083 a86.0,86.0 0 0,1 10.666146001902534,-42.60595125391555" fill="none" id="id22" stroke="none" /><text fill="#e1ed5e" style="font-size:6.75px; font-family:Arial;" text-anchor="middle"><textPath startOffset="22.20632615414155" xlink:href="#id22">October</textPath></text><path d="M 79.71946130924805 94.55025226153421 l -19.696853553354902 -5.2929009798066495 a41.3956083675959,41.3956083675959 0 0,0 0.19084012049700658,-0.6865534515490423 l 19.602826662291534 5.631165734774635" fill="#ff900d" stroke="none" /><path d="M 79.91906864156998 93.8553929516997 l -23.30224554033513 -7.130303850586043 a45.3687480233136,45.3687480233136 0 0,0 0.23493345503988072,-0.7448032538323477 l 23.176056601527044 7.530357270844805" fill="#ffce13" stroke="none" /><path d="M 80.38941819471856 92.48833698450439 l -16.037208271612258 -6.142913323113483 a38.17345140740072,38.17345140740072 0 0,0 0.24032269044458152,-0.611595033932533 l 15.929092031285986 6.418057361941779" fill="#ff5b08" stroke="none" /><path d="M 80.803312248108 91.48605970444005 l -43.89313590837207 -19.4670842875978 a69.01640084941039,69.01640084941039 0 0,0 0.490994779925261,-1.081841913740919 l 43.551538811483454 20.21974821018079" fill="#36ff72" stroke="none" /><line stroke="#e1ed5e" stroke-width="0.3" x1="26.266209847984243" x2="21.928928074336255" y1="57.711370442889674" y2="55.22380399835377" /><path d="M 25.398753493254645 57.213857153982495 a86.0,86.0 0 0,1 29.58750427330803,-30.492523968695096" fill="none" id="id23" stroke="none" /><text fill="#e1ed5e" style="font-size:6.75px; font-family:Arial;" text-anchor="middle"><textPath startOffset="21.46611528233685" xlink:href="#id23">November</textPath></text><path d="M 81.96595687620814 89.24020034530311 l -29.785544815965917 -17.771194879920138 a55.684204581394305,55.684204581394305 0 0,0 0.4981991583734405,-0.8189084237173728 l 29.47522985930626 18.281271076844583" fill="#9cff22" stroke="none" /><path d="M 85.31137513191541 84.99185889309783 l -21.26940488850328 -21.732070407767047 a51.408394704739536,51.408394704739536 0 0,0 0.6377499161700381,-0.6135149140669737 l 20.892171728720815 22.094968408596333" fill="#d7ff1c" stroke="none" /><path d="M 87.51073957382395 83.11751280151077 l -18.985842691868214 -25.664309595643104 a52.92364342836488,52.92364342836488 0 0,0 0.7370365426784624,-0.5354883929499428 l 18.54126083283597 25.987317223409715" fill="#c1ff1e" stroke="none" /><path d="M 88.39885842347998 82.49532879139004 l -13.007189662139467 -19.626221857735537 a44.5451814033344,44.5451814033344 0 0,0 0.6427932765538515,-0.4180906275288516 l 12.667429359801329 19.847211409423924" fill="#ffc112" stroke="none" /><line stroke="#e1ed5e" stroke-width="0.3" x1="56.762969772571076" x2="54.21961505331055" y1="26.818313649435495" y2="22.513508569990535" /><path d="M 56.25429882871897 25.957352633546506 a86.0,86.0 0 0,1 42.265352541879196,-11.944610805530505" fill="none" id="id24" stroke="none" /><text fill="#e1ed5e" style="font-size:6.75px; font-family:Arial;" text-anchor="middle"><textPath startOffset="22.20632615414155" xlink:href="#id24">December</textPath></text><path d="M 90.26544431104013 81.39251694778311 l -15.694568526853306 -29.999974031324616 a54.857317128270005,54.857317128270005 0 0,0 0.8404650697637215,-0.43051885257339206 l 15.17584296950082 30.265685409210512" fill="#a7ff21" stroke="none" /><path d="M 90.58718382345135 81.22770947309562 l -13.396453691830397 -26.71699053890066 a50.88749830569738,50.88749830569738 0 0,0 0.7864026357217649,-0.38588435803951937 l 12.934579789098205 26.94363005707501" fill="#deff1b" stroke="none" /><path d="M 91.23893434514133 80.91482961587045 l -15.165712214096617 -33.03709993797297 a57.351737224958214,57.351737224958214 0 0,0 0.9007442130374264,-0.40413767232629527 l 14.594785882592417 33.29325794081579" fill="#86ff25" stroke="none" /><path d="M 92.91201910852362 80.23233633223022 l -12.809796939369056 -35.72523140608103 a58.952378800885555,58.952378800885555 0 0,0 0.9581670375247772,-0.33428566528943604 l 12.192947897780993 35.94043792454268" fill="#71ff27" stroke="none" /><path d="M 93.59665428221793 80.00007090966166 l -8.751692403330225 -27.334652102414264 a49.701486468169705,49.701486468169705 0 0,0 0.8170323869919983,-0.25385593974827997 l 8.279874643627497 27.48124817704507" fill="#efff19" stroke="none" /><path d="M 94.63758080256005 79.69619591428918 l -6.505261620713986 -24.63096460946711 a46.47553427009443,46.47553427009443 0 0,0 0.7752365023061797,-0.19762504579860726 l 6.080316229722807 24.73929265143458" fill="#ffdf14" stroke="none" /><path d="M 95.33964822691252 79.52364482259891 l -9.685816724439718 -42.55692125606336 a64.6452356210184,64.6452356210184 0 0,0 1.0871397765891728,-0.23760664773118023 l 8.951834223697025 42.71734140189041" fill="#30ff34" stroke="none" /><path d="M 96.40284397218896 79.31037775812273 l -3.2751136174234876 -18.837343451280436 a40.11993403515113,40.11993403515113 0 0,0 0.6814099391415664,-0.11243847850401402 l 2.950374472143036 18.890928192724076" fill="#ff7b0b" stroke="none" /><path d="M 97.47563105711357 79.15227682838746 l -5.702726568667661 -47.096469461014195 a68.44047350110695,68.44047350110695 0 0,0 1.1707665194837353,-0.13154925985204532 l 4.891193345674207 47.18765467433684" fill="#36ff6a" stroke="none" /><path d="M 97.83486435360386 79.11191278185805 l -2.616788439935701 -25.24539525077021 a46.38065332309222,46.38065332309222 0 0,0 0.7948205581009343,-0.07547778915937421 l 2.18184275474453 25.286698584444764" fill="#ffde14" stroke="none" /><path d="M 99.63851952072746 79.00311137660856 l -0.7643549076128202 -44.39817855776583 a65.40475760177111,65.40475760177111 0 0,0 1.125835386885345,-0.009690420613838738 l 1.0876028852784618e-14 44.40475760177111" fill="#31ff3f" stroke="none" /></svg>